<svg data-v-0dd9719b="" version="1.0" width="340px" height="70px" viewBox="0 0 340 70" preserveAspectRatio="xMidYMid" color-interpolation-filters="sRGB" id="svg4380" sodipodi:docname="logo.svg" inkscape:version="1.2.1 (9c6d41e, 2022-07-14)" xmlns:inkscape="http://www.inkscape.org/namespaces/inkscape" xmlns:sodipodi="http://sodipodi.sourceforge.net/DTD/sodipodi-0.dtd" xmlns="http://www.w3.org/2000/svg" xmlns:svg="http://www.w3.org/2000/svg" transform="rotate(0) scale(1, 1)">
  <sodipodi:namedview id="namedview4382" pagecolor="#ffffff" bordercolor="#000000" borderopacity="0.25" inkscape:showpageshadow="2" inkscape:pageopacity="0.0" inkscape:pagecheckerboard="0" inkscape:deskcolor="#d1d1d1" showgrid="false" inkscape:zoom="1.4142136" inkscape:cx="178.54446" inkscape:cy="56.568542" inkscape:window-width="1920" inkscape:window-height="1011" inkscape:window-x="0" inkscape:window-y="32" inkscape:window-maximized="1" inkscape:current-layer="svg4380"/>
  <rect x="0" y="0" width="100%" height="100%" fill="#fbc2eb" fill-opacity="0" class="background" id="rect4366"/>
  <!---->
  <g fill="#ffffff" class="basesvg" transform="matrix(1.4815164,0,0,1.4858665,-10.172325,30.445705)" id="g4376" inkscape:export-filename="g4376.svg" inkscape:export-xdpi="96" inkscape:export-ydpi="96">
    <!---->
    <path d="m 8.0763518,2.160445 c -0.21,0.12 -0.41,0.38 -0.41,0.66 0,0.08 0,0.15 0.05,0.23 0.08,0.13 0.2,0.26 0.38,0.36 0.8,0.46 3.5400002,1.54 4.7400002,2.05 0.1,0.05 0.18,0.05 0.23,0.05 0.18,0 0.25,-0.1 0.25,-0.23 0,-0.05 0,-0.08 -0.02,-0.13 -0.08,-0.1 -0.21,-0.2 -0.39,-0.28 l -4.3200002,-1.87 c 0.28,-0.38 4.0200002,-2.74000005 4.7100002,-3.15000005 0.08,-0.05 0.1,-0.1 0.1,-0.15 0,-0.03 -0.02,-0.08 -0.05,-0.13 -0.1,-0.18 -0.36,-0.38 -0.59,-0.38 -0.05,0 -0.1,0.02 -0.15,0.05 z m 7.6200002,0.51 c 0.03,0.02 0.36,0.07 1.11,0.18 1.53,0.3 4.7,0.66 8.49,0.82 h 0.05 c 6.91,0.61 16.62,0.89 26.62,0.89 h 2.49 c 0.46,1.49 0.69,3.58 1.02,6.35 0.28,2.56 0.67,5.22 1.15,6.19 0.1,0.23 0.21,0.36 0.33,0.39 h 0.06 c 0.35,0 0.46,-1.41 0.46,-3.3 0,-1.26 -0.03,-2.74 -0.08,-4.18 l -0.08,-5.47 c 5.28,-0.06 10.5,-0.18 15.36,-0.39 0.18,2.84 0.49,5.58 0.95,7.96 v 0.1 c 0.15,0.26 0.46,0.41 0.69,0.41 0.15,0 0.25,-0.07 0.25,-0.23 v -0.07 c -0.46,-2.46 -0.76,-5.28 -0.94,-8.19 4.83,-0.23 9.16,-0.52 12.77,-0.85 0.18,-0.02 0.26,-0.1 0.26,-0.2 0,-0.05 -0.03,-0.13 -0.06,-0.18 -0.07,-0.21 -0.35,-0.41 -0.64,-0.41 h -0.05 c -3.45,0.33 -7.7,0.61 -12.31,0.82 -0.13,-2.1 -0.18,-4.46 -0.18,-6.76 0,-5.12 0.28,-10.16 0.69,-12.59 0,-0.36 -0.3,-0.62 -0.69,-0.62 -0.13,0 -0.25,0.05 -0.28,0.21 -0.43,2.51 -0.69,7.75 -0.69,12.97 0,2.36 0.05,4.71 0.15,6.81 -4.76,0.21 -9.98,0.36 -15.23,0.41 0.06,-1.02 0.08,-4.43000005 0.08,-8.34 0,-5.86 -0.08,-12.83 -0.41,-14.36 l -0.02,-0.1 c -0.13,-0.23 -0.44,-0.39 -0.67,-0.39 -0.18,0 -0.28,0.08 -0.28,0.23 v 0.08 c 0.33,1.46 0.41,7.99 0.41,13.72 0,4.35 -0.05,8.24 -0.1,9.16 l -1.31,0.03 -0.1,-0.18 c -0.8,-1.67 -2.05,-2.38 -3.94,-2.38 -0.93,0 -1.97,0.18 -3.23,0.48 -4.3,1.08 -11.31,1.31 -16.46,1.31 -3.12,0 -5.55,-0.08 -6.34,-0.13 -3.95,-0.36 -6.45,-0.48 -7.81,-0.48 -0.92,0 -1.33,0.05 -1.33,0.15 0.02,0.02 0.02,0.05 0.1,0.08 -0.15,0 -0.26,0.02 -0.26,0.05 z m 23.63,0.94 c 3.3,-0.17 6.55,-0.51 9.06,-1.15 1.2,-0.3 2.23,-0.46 3.02,-0.46 1.1,0 1.79,0.31 2.28,0.92 0.15,0.23 0.33,0.52 0.48,0.85 h -2.53 c -4.22,0 -8.37,-0.05 -12.31,-0.16 z m 16.02,0.95 h 1 c -0.03,0.26 -0.03,0.59 -0.03,1 0,1.07 0.06,2.58 0.11,4.15 0.02,0.76 0.05,1.53 0.12,2.3 -0.35,-2.84 -0.61,-5.66 -1.2,-7.45 z m 54.669998,8.12 c -0.02,0.02 -0.02,0.07 -0.02,0.12 0,0.05 0,0.11 0.02,0.16 0.13,0.23 0.46,0.41 0.69,0.41 0.11,0 0.18,-0.03 0.26,-0.11 1.08,-1.66 1.51,-5.01 1.72,-8.8 4.55,2.2 9.29,5.5 13.87,5.55 h 0.08 c 5.06,0 8.44,-2.97 11.36,-6.83 0.02,-0.05 0.05,-0.08 0.05,-0.13 0,-0.05 -0.03,-0.1 -0.05,-0.15 -0.13,-0.23 -0.44,-0.41 -0.67,-0.41 -0.1,0 -0.18,0.02 -0.25,0.1 -2.79,3.71 -6.09,6.63 -10.93,6.63 h -0.05 c -4.07,-0.05 -8.68,-3.15 -12.93,-5.25 4.79,-0.64 8.42,-1.87 11.01,-3.43000005 3.76,-2.19999995 5.42,-5.03999995 5.42,-7.54999995 0,-0.87 -0.2,-1.71 -0.58,-2.45 l -0.16,-0.29 c -3.3,-5.99 -12.49,-8.8 -21.83,-8.8 -12.079998,0 -24.389998,4.73 -24.389998,13.41 0,1.72 0.48,3.56 1.53,5.57999995 l 0.13,0.23 c 1.84,3.33000005 6.14,7.24000005 11.21,9.29000005 0.13,0.05 0.21,0.05 0.28,0.05 0.18,0 0.26,-0.1 0.26,-0.23 0,-0.05 -0.03,-0.1 -0.05,-0.18 -0.08,-0.12 -0.23,-0.25 -0.41,-0.33 -4.71,-1.92 -8.7,-5.55 -10.42,-8.62000005 l -0.1,-0.18 c -1,-1.89999995 -1.44,-3.65999995 -1.44,-5.27999995 0,-8.39 12.16,-12.92 23.889998,-12.92 8.85,0 17.43,2.56 20.42,7.98 l 0.13,0.26 c 0.36,0.66 0.54,1.41 0.54,2.2 0,2.3 -1.62,4.99 -5.23,7.13999995 -2.53,1.49000005 -6.04,2.69000005 -10.64,3.33000005 0.07,-1.84 0.1,-3.71000005 0.12,-5.53 0.06,-5.12 0.11,-9.65 1.08,-10.29 0.08,-0.05 0.1,-0.1 0.1,-0.18 0,-0.05 -0.02,-0.13 -0.05,-0.18 -0.05,-0.07 -0.1,-0.13 -0.15,-0.18 -0.18,-0.15 -0.34,-0.2 -0.49,-0.2 -1.43,0 -1.46,6.81 -1.48,10.67 -0.05,1.96999995 -0.08,4.02 -0.16,5.99 -2.15,-0.95 -3.86,-1.41 -5.01,-1.41 -0.62,0 -1.08,0.13 -1.39,0.39 -0.28,0.23 -0.38,0.56 -0.38,0.92 0,0.28 0.05,0.54 0.18,0.77 0.15,0.28 0.38,0.48 0.72,0.48 2.09,0 4.04,-0.1 5.86,-0.28 -0.21,3.69 -0.62,6.96 -1.67,8.53 z m -4.09,-9.04 v -0.05 c 0,-0.64 0.41,-0.92 1.2,-0.92 0.74,0 1.79,0.25 3.18,0.77 -1.39,0.12 -2.85,0.17 -4.38,0.2 z m 52.39,-17.17 c -0.54,-0.67 -2.1,-0.87 -3.63,-0.87 -1.31,0 -3.38,0.07 -4.64,0.61 l -9.06,-0.15 c -0.18,0 -0.25,0.07 -0.25,0.2 0,0.05 0.02,0.13 0.05,0.18 0.1,0.2 0.36,0.41 0.64,0.41 l 7.37,0.13 c -0.18,0.23 -0.28,0.48 -0.28,0.77 0,2.02 0.43,4.73 0.92,7.72 0.56,3.66999995 1.2,7.73 1.2,11.22 0,3.4 -0.61,6.27 -2.48,7.67 -0.08,0.03 -0.31,0.03 -0.64,0.03 h -1.59 c -1.28,0 -2.71,0.03 -3.12,0.28 -0.13,0.08 -0.18,0.18 -0.18,0.31 0,0.08 0.03,0.13 0.05,0.2 0.26,0.44 1.13,0.9 2.46,0.92 h 0.28 c 1.44,0 2.54,-0.35 3.43,-0.94 h 0.18 c 0.72,-0.03 1.38,-0.03 2.05,-0.03 1.82,0 3.56,0.13 6.88,0.69 0.05,0 0.11,0.03 0.16,0.03 0.15,0 0.23,-0.08 0.23,-0.21 0,-0.05 -0.03,-0.12 -0.05,-0.2 -0.11,-0.18 -0.29,-0.33 -0.59,-0.38 -3.33,-0.59 -5.1,-0.72 -6.94,-0.72 h -1.02 c 1.41,-1.66 1.89,-4.3 1.89,-7.37 0,-3.51 -0.64,-7.55000005 -1.23,-11.24 -0.46,-2.97 -0.87,-5.68 -0.87,-7.63 v -0.07 c 0,-0.44 0.44,-0.8 1.13,-1.03 1.3,0.03 2.56,0.03 3.68,0.03 2.28,0 3.92,-0.05 4.02,-0.18 0.03,-0.03 0.05,-0.08 0.05,-0.13 0,-0.05 -0.02,-0.13 -0.05,-0.18 z m -13.56,28.84 c -0.21,0 -0.41,-0.02 -0.59,-0.05 l 2.07,-0.08 c -0.38,0.08 -0.77,0.13 -1.2,0.13 z m 66.24,-12.11 c 0.07,-0.05 0.1,-0.1 0.1,-0.15 0,-0.05 -0.03,-0.1 -0.05,-0.15 -0.05,-0.21 -0.41,-0.41 -0.67,-0.41 -0.07,0 -0.15,0.02 -0.23,0.1 -3.15,3.3 -8.75,4.27 -15.23,4.27 -4.53,0 -9.47,-0.48 -14.3,-0.94 -2.26,-0.21 -4.48,-0.41 -6.63,-0.57 0.05,-0.33 0.07,-0.66 0.07,-0.99 2.59,-1.44 5.28,-3.18 7.84,-5.10000005 8.24,-6.08999995 15.58,-13.83999995 16.27,-17.42999995 v -0.2 c -0.12,-0.23 -0.41,-0.39 -0.64,-0.39 -0.15,0 -0.25,0.06 -0.3,0.21 -0.67,3.51 -7.94,11.11 -16.08,17.15 -2.27,1.70999995 -4.71,3.3 -7.01,4.6 0.28,-4.83 0.46,-9.72 0.46,-13.69 0,-3.02 -0.1,-5.53 -0.36,-7.09 0.03,-0.02 0.03,-0.08 0.03,-0.1 -0.13,-0.23 -0.39,-0.36 -0.62,-0.36 -0.15,0 -0.3,0.08 -0.3,0.26 v 0.05 c 0.23,1.48 0.3,3.86 0.3,6.75 0,3.84 -0.15,8.58 -0.43,13.39 -0.05,0.46 -0.08,0.92 -0.08,1.36 -0.95,0.51 -1.84,0.97 -2.74,1.35 -0.89,-0.02 -1.76,-0.05 -2.63,-0.05 -0.98,0 -1.95,0.03 -2.82,0.08 -2.46,0.18 -3.22,0.87 -3.22,1.51 0,0.1 0.02,0.23 0.07,0.33 0.36,0.75 1.13,0.85 1.85,0.85 2.07,0 4.55,-0.72 7.27,-1.9 0.66,0.03 1.38,0.05 2.09,0.11 -0.61,8.44 -1.48,16.5 -2.22,19.83 v 0.03 c 0,0.05 0.02,0.1 0.05,0.15 0.08,0.23 0.36,0.41 0.61,0.41 0.13,0 0.31,-0.05 0.31,-0.2 0.74,-3.38 1.61,-11.6 2.2,-20.15 2.23,0.16 4.53,0.39 6.91,0.59 4.81,0.46 9.83,0.95 14.44,0.95 6.6,0 12.39,-1 15.69,-4.46 z m -48.22,3.82 c -0.03,0 -0.08,-0.03 -0.08,-0.05 v -0.05 c 0,-0.06 0.02,-0.13 0.05,-0.16 0.54,-0.87 3.79,-0.89 5.61,-0.89 h 0.28 c -1.95,0.74 -3.74,1.17 -5.28,1.17 -0.2,0 -0.41,0 -0.58,-0.02 z m 10.26,-1.74 c -0.21,-0.03 -0.41,-0.03 -0.64,-0.05 0.2,-0.11 0.41,-0.23 0.69,-0.34 z m 54.75,-20.4 c -4.63,8.06 -9.63,16.12 -14.75,23.88 -0.02,0.02 -0.05,0.08 -0.05,0.1 0,0.05 0.03,0.1 0.05,0.15 0.11,0.18 0.39,0.36 0.62,0.36 0.08,0 0.15,-0.02 0.2,-0.1 5.15,-7.78 10.11,-15.82 14.77,-23.88 0,-0.03 0.03,-0.05 0.03,-0.1 0,-0.03 -0.03,-0.08 -0.05,-0.13 -0.11,-0.2 -0.39,-0.38 -0.62,-0.38 -0.07,0 -0.18,0.02 -0.2,0.1 z m 7.27,17.68 c 0.2,-0.15 0.41,-0.4 0.41,-0.66 0,-0.08 -0.03,-0.18 -0.08,-0.26 -0.05,-0.1 -0.18,-0.23 -0.36,-0.33 -0.79,-0.46000005 -3.53,-1.54000005 -4.76,-2.05000005 -0.1,-0.05 -0.18,-0.07 -0.23,-0.07 -0.15,0 -0.26,0.1 -0.26,0.23 0,0.05 0.03,0.1 0.06,0.15 0.05,0.1 0.2,0.2 0.35,0.28 l 4.36,1.87000005 c -0.29,0.38 -4.02,2.74 -4.74,3.15 -0.05,0.02 -0.08,0.08 -0.08,0.13 0,0.05 0.03,0.1 0.05,0.15 0.08,0.18 0.34,0.36 0.57,0.36 0.05,0 0.13,0 0.18,-0.03 z" id="path4368" inkscape:export-filename="path4368.svg" inkscape:export-xdpi="96" inkscape:export-ydpi="96"/>
  </g>
  <defs v-gra="od" id="defs4378"/>
</svg>